<svg width="160" height="72" viewBox="0 0 160 72" fill="none" xmlns="http://www.w3.org/2000/svg">
<path fill-rule="evenodd" clip-rule="evenodd" d="M160 0H152V8H144V16H136V24H128V32H96V40H128V48H136V56H144V64H152V72H160V64V56V48V40V32V24V16V8V0ZM48 16H56V24H48V16ZM32 48H40V56H32V48ZM104 56V64H32V56H24V48H32V40H40V32H24V40H16V24H0V40H16V48V56V64H24V72H112V64H120V56V48H112V56H104ZM104 56H96V48H104V56ZM56 32H48V56H56V32ZM64 16H72V24H64V16ZM72 32H64V56H72V32ZM80 16H88V24H80V16ZM88 32H80V56H88V32Z" fill="#1F1F1F"/>
</svg>
